<svg id="Layer_1" data-name="Layer 1" xmlns="http://www.w3.org/2000/svg" viewBox="0 0 400 400"><defs><style>.cls-1{fill:#b9c2c6;}</style></defs><path class="cls-1" d="M219,83c29,82.29-42.5,165.15-120,233,46.81-31.41,98.82-60.33,130-138C239,156.73,247.85,105.27,219,83Z"/><path d="M200,74c-4.19-1.21-33.47-9.18-54.55,7.89C128.23,95.83,124.2,120.36,127,138c10,63.25,121.56,70.9,124,124,.89,19.3-13,33.93-15,36-25.19,25.84-69.93,12.93-73,12,7.08,4.32,25.61,14.25,50,12,6.55-.6,34.69-3.2,50.61-25.55C264.45,295.28,277.45,277,274,255c-9.42-60-119-67.69-124-123-.81-8.9.57-22.91,9-35C171.85,78.57,193.85,74.84,200,74Z"/></svg>