<svg id="logo-2" xmlns="http://www.w3.org/2000/svg" viewBox="0 0 119.41 158.63"><defs><style>.cls-1,.cls-2{stroke:#000;stroke-miterlimit:10;}.cls-2{fill:none;}</style></defs><path class="cls-1" d="M506.5,407.5c-14.44-5.05-24.62-20.46-32-62-8-45-50-34.47-45-12,2,9,15,16,39,7s46.59-25.84,34-58c-9-23-33.81-17.26-41-7-7,10-6,17-6,17,15-25,38-20,40,2,2.73,30-42,38-50,37-15.18-1.9-2.65-15.65,5-8,12,12,10.51,83.12,46,98,31,13,44-26,44-26S526.5,414.5,506.5,407.5Z" transform="translate(-428.59 -266.02)"/><path class="cls-2" d="M549.5,413.1" transform="translate(-428.59 -266.02)"/><path class="cls-1" d="M521.5,273.5s4,3,4,12v40c0,12.55-3,41,11,40,11-.78,11-16,11-16s-3.86,2.39-7,2c-8-1-6-6-6-45,0-21,1-34-5-36C525.73,269.24,521.5,273.5,521.5,273.5Z" transform="translate(-428.59 -266.02)"/><polygon class="cls-1" points="96.91 25.48 74.91 31.48 74.91 42.48 96.91 36.48 96.91 25.48"/></svg>