<svg id="Layer_1" data-name="Layer 1" xmlns="http://www.w3.org/2000/svg" viewBox="0 0 365 365"><path d="M31.29,344.69a150.89,150.89,0,0,0,45-21,153.19,153.19,0,0,0,24.77-20.43,141.24,141.24,0,0,0,13.59-17.06c10.09-14.63,18.17-30.64,25.27-46.9a534.3,534.3,0,0,0,22.55-62.6,708.9,708.9,0,0,0,17.37-73.34q3.63-19.91,6.22-40c1.44-11.12,3-22.52,2.53-33.76-.16-3.83-.44-8.18-2.44-11.58a7.52,7.52,0,0,0-9.28-3.44c-3.34,1.26-5.93,4-8.12,6.72A93.23,93.23,0,0,0,162,31a110.41,110.41,0,0,0-9.25,18.72A110.13,110.13,0,0,0,146.21,82c-1.47,24.57,3.58,49.27,9,73.1,5.1,22.47,11.31,44.64,18,66.67,4.56,14.93,9.6,29.84,12.78,45.15.32,1.54.61,3.08.88,4.63.13.73.24,1.46.35,2.19.06.35.11.71.16,1.07.18,1.22-.08-.71,0,.27a83.2,83.2,0,0,1,.64,8.48,59.8,59.8,0,0,1-.36,8c0,.17-.18,1.36-.05.47s0,.3-.07.47c-.1.66-.22,1.33-.35,2-.25,1.29-.55,2.57-.9,3.83s-.75,2.54-1.21,3.79c-.22.62-.46,1.23-.7,1.83-.4,1,.23-.49,0,.07l-.45,1a60.34,60.34,0,0,1-4,7.29q-.7,1.1-1.44,2.16l-.83,1.14c-.14.2-.29.39-.44.59.62-.83-.15.19-.22.28a53.46,53.46,0,0,1-4.47,4.92,42,42,0,0,1-12.49,8.41c-.78.35-.1,0,0,0l-.69.28c-.46.18-.92.35-1.39.51-1.05.37-2.12.7-3.19,1a50.89,50.89,0,0,1-5.87,1.2c1.05-.16-.39,0-.68.07-.51.05-1,.1-1.52.13-1.14.09-2.29.14-3.44.16-2.08,0-4.16-.05-6.23-.22l-1.58-.16c-.24,0-1.75-.22-.78-.08-1.12-.16-2.24-.35-3.36-.56-2.21-.41-4.4-.93-6.56-1.54s-4.38-1.33-6.52-2.12c-1.06-.39-2.1-.8-3.14-1.23-.68-.28.57.25-.1,0l-.78-.34-1.74-.79a97.1,97.1,0,0,1-12.37-6.9c-2-1.31-3.94-2.69-5.82-4.14-.59-.44.46.37-.12-.09l-.68-.53-1.34-1.1c-.94-.78-1.86-1.58-2.77-2.39a91,91,0,0,1-9.75-10.18q-.54-.66-1-1.32c.5.65-.48-.64-.58-.77-.7-1-1.39-1.92-2.05-2.9-1.27-1.88-2.47-3.83-3.56-5.82A56,56,0,0,1,68,279.58a62.74,62.74,0,0,1-1.79-6.34,38.24,38.24,0,0,1-1-7.31,39.29,39.29,0,0,1,1.79-14.58c.24-.73.57-1.42.8-2.15-.53,1.68,0,.05.22-.41s.56-1.14.86-1.69c.65-1.18,1.36-2.32,2.11-3.43.45-.65.91-1.28,1.38-1.91s-.06.07-.13.17l.4-.51c.35-.44.71-.87,1.08-1.3a74.74,74.74,0,0,1,9.91-9.49c1.86-1.5,4.14-3.15,6.41-4.69,2.91-2,5.9-3.81,9-5.56A143.57,143.57,0,0,1,116.05,212c21.4-8.66,44.11-11.63,66.8-14.86q34.68-4.95,69.21-10.84c12.42-2.13,24.8-4.4,37.2-6.67L293,179c.63-.1,2-.07-.14,0a2.3,2.3,0,0,1,.26,0h.09a5.28,5.28,0,0,1-2.21-.6l-1.61-1.61h0l-.61-2.27h0l.61-2.27a4.46,4.46,0,0,1,2.56-2,1.25,1.25,0,0,0-.26.07c-.36,0-.71.14-1.06.21-1.57.3-3.15.56-4.73.83-7.85,1.3-15.71,2.51-23.57,3.73s-16,2.46-24,3.67l5.53,5.54q5.09-35.28,10.15-70.55l1.41-9.81.69-4.75a30.18,30.18,0,0,0,.75-5.31,4.52,4.52,0,0,0-3.9-4.42c-2-.23-4.62,1-4.94,3.23-2.49,17.28-4.87,34.58-7.27,51.88-3.89,28-7.75,55.95-10.78,84-1.61,14.89-3,29.83-3.6,44.8-.46,11.35-.63,22.91,1.24,34.16,1.09,6.57,3.44,15.33,10.64,17.58,4.1,1.27,8.44-.28,11.89-2.51,6.17-4,11.14-9.78,15.67-15.47,8.77-11,16.42-22.86,23.74-34.86q3.62-5.94,7.13-12a4.5,4.5,0,0,0-7.77-4.54A461.26,461.26,0,0,1,263.72,295q-1.17,1.6-2.37,3.18l-.62.82c-.7.92.58-.74-.12.15l-1.2,1.53c-1.45,1.81-2.93,3.6-4.48,5.33a66.31,66.31,0,0,1-7.19,7.13l-.81.66c-.43.36,1.08-.79.12-.11-.49.36-1,.71-1.49,1-.84.54-1.72,1-2.59,1.43-.28.15,1.36-.49.36-.16l-.54.19c-.39.13-.78.21-1.17.31-1.18.29,1.34,0,.17,0h-1c-1,0,1.43.4.32,0l-.38-.1c-.69-.15-.37-.6.36.18a3.64,3.64,0,0,0-.65-.34c-.77-.4-.17-.62.18.19a7.7,7.7,0,0,0-1.24-1.25c-.49-.49.68,1,.32.41-.08-.14-.19-.27-.27-.4s-.31-.48-.45-.72-.34-.63-.5-.95l-.24-.51c-.38-.78.12.36.15.37-.29-.09-.71-2-.8-2.26-.29-.92-.53-1.85-.74-2.79s-.39-1.83-.55-2.75c-.08-.44-.15-.88-.22-1.33-.05-.27-.08-.55-.12-.82-.13-.81.12,1.09,0-.22q-.42-3.56-.63-7.13c-.33-5.66-.33-11.33-.2-17,.33-14.22,1.53-28.41,3-42.56,1.61-16,3.58-31.9,5.65-47.82,1.62-12.46,3.15-23.85,4.87-36.27q3.88-28.09,7.87-56.17l.18-1.3-8.84-1.2c0-.12.16-1.06,0-.24-.07.42-.12.84-.18,1.26l-.27,1.9-.68,4.75L245.48,110,243,127.41q-2.5,17.4-5,34.8-1.42,9.81-2.83,19.62c-.51,3.59,1.92,6.08,5.54,5.53,16.7-2.54,33.44-5,50.08-7.83,3-.53,7-.9,7-5.08s-3.59-4.72-6.6-4.25c-1.23.19-2.46.42-3.68.64-13.63,2.49-27.25,5-40.91,7.31q-37.46,6.38-75.1,11.57a332.08,332.08,0,0,0-35.28,6.34,166.18,166.18,0,0,0-38.77,14.88c-10.8,5.84-21.5,13-29.65,22.29a45.93,45.93,0,0,0-9.47,15.67c-6.78,20.57,2.57,43.22,15.79,59s32,27.65,52,32.27c9.63,2.22,19.73,2.74,29.41.53a50.48,50.48,0,0,0,27-16.64,60.46,60.46,0,0,0,14.61-36.73c.55-14-3.22-27.95-7.05-41.25-5.7-19.84-12.15-39.44-17.6-59.35q-5.44-19.95-9.88-40.14a335.53,335.53,0,0,1-6.72-39.89c-2.12-22.45-.39-44.88,10.17-64.59q2-3.66,4.16-7.18c1.05-1.69,2.14-3.37,3.29-5,.29-.42.59-.83.89-1.24.13-.18,1.16-1.49.4-.54.59-.74,1.19-1.48,1.83-2.19s1.12-1.21,1.72-1.77c.18-.16.63-.72.89-.77,0,0-1,.64-.32.25l.57-.39c.09-.05.76-.4.75-.41s-1.22.56-.08.09c.72-.29-1.21,0-.27.06,0,0-1.3-.26-.71-.09s-1.1-.57-.47-.22c.82.47-.65-.55-.23-.18.69.61-.28-.72-.12-.16.06.18.73,1.13.28.43s.15.47.24.77c.23.81.36,1.64.53,2.47s0-.06,0-.2c0,.3.07.59.1.88.06.62.11,1.25.14,1.87.73,12.21-1.15,24.67-2.75,36.74q-2.79,21.12-6.83,42a693.83,693.83,0,0,1-19.53,77.91c-3.66,11.6-7.66,23.1-12.09,34.43-3.93,10-7.84,19.16-12.69,29.13A275.56,275.56,0,0,1,111.89,274c-2.22,3.56-4.54,7.06-7,10.47-.58.81-1.18,1.62-1.78,2.43l-.79,1c-.13.18-.27.35-.4.52.69-.9.07-.09-.09.11q-1.74,2.22-3.57,4.36A128.63,128.63,0,0,1,76,313a160.75,160.75,0,0,1-18.8,11.93A138.83,138.83,0,0,1,28.89,336c-5.57,1.55-3.2,10.23,2.4,8.68Z"/></svg>